<svg xmlns="http://www.w3.org/2000/svg" xml:space="preserve" width="301" height="301" viewBox="0 0 79.64 79.64"><path d="M57.415 62.706h79.375v79.375H57.415z" style="fill:#fff;stroke:none;stroke-width:.264583" transform="translate(-57.282 -62.574)"/><path d="m63.013 55.977-1.747-15.72c-.485-4.659-4.464-8.249-9.219-8.249h-5.143c-.194 0-.485.097-.582.291l-6.502 8.83-6.599-8.83c-.097-.194-.388-.291-.582-.291h-5.143c-4.755 0-8.637 3.493-9.22 8.248l-1.65 15.721c-.29 2.814 1.554 5.435 4.27 6.017l-1.358-15.527a2.146 2.146 0 0 1 2.135-2.329h36.1c1.261 0 2.328 1.068 2.134 2.426l-1.261 15.527c2.814-.777 4.658-3.3 4.367-6.114M39.82 30.746c6.113 0 10.965-4.949 10.965-10.965 0-6.114-4.852-11.063-10.965-11.063-6.114 0-10.966 4.95-10.966 10.966 0 6.113 4.852 11.062 10.966 11.062M59.131 65.1H20.509c-.583 0-.874.581-.68 1.067l2.135 4.366c.097.292.388.389.68.389h34.255c.291 0 .485-.195.68-.389l2.134-4.366c.291-.583-.097-1.068-.582-1.068"/><path d="M58.646 46.273a.765.765 0 0 0-.776-.776h-36.1c-.388 0-.776.388-.776.776l1.455 17.37h34.644zM40.984 32.687h-2.329a.73.73 0 0 0-.679.485l-.582 2.135 2.426 3.3 2.62-3.494-.68-2.038c-.193-.194-.388-.388-.776-.388"/></svg>